<svg width="83" height="110" viewBox="0 0 83 110" fill="none" xmlns="http://www.w3.org/2000/svg">
<path d="M2.55453 0.46228C1.21665 0.46228 0.328003 1.25315 0.328003 2.80178V4.79445V106.201C0.328003 107.868 1.33348 109.048 2.8935 109.048H14.5507L13.9463 23.1234L33.9856 67.8808L40.9315 55.7879L15.9957 0.46228H5.27415H2.55453ZM82.534 7.06945L68.5936 31.344L68.1425 96.7859H82.5345L82.534 7.06945Z" fill="#080C08"/>
<path d="M50.3293 47.3048H52.3124V51.7304H50.3293V47.3048ZM17.2099 109.046L16.9369 97.5096L65.6988 12.7229L24.6436 12.7073L18.8225 0.421997L79.4229 0.453262C81.9982 0.454511 82.5423 1.47735 82.5555 3.10279L82.5867 6.97605L31.0224 96.786H82.5343V105.309C82.5343 107.796 81.3305 109.048 78.8688 109.048L17.2099 109.046Z" fill="#2176FF"/>
</svg>
